<?xml version="1.0" encoding="UTF-8" standalone="no"?>
<!-- Created with Inkscape (http://www.inkscape.org/) -->

<svg
   width="180"
   height="180"
   viewBox="0 0 180 180"
   version="1.1"
   id="svg1"
   xml:space="preserve"
   inkscape:version="1.3 (0e150ed6c4, 2023-07-21)"
   sodipodi:docname="ars-paulina.inkscape.svg"
   xmlns:inkscape="http://www.inkscape.org/namespaces/inkscape"
   xmlns:sodipodi="http://sodipodi.sourceforge.net/DTD/sodipodi-0.dtd"
   xmlns:xlink="http://www.w3.org/1999/xlink"
   xmlns="http://www.w3.org/2000/svg"
   xmlns:svg="http://www.w3.org/2000/svg"><sodipodi:namedview
     id="namedview1"
     pagecolor="#505050"
     bordercolor="#eeeeee"
     borderopacity="1"
     inkscape:showpageshadow="0"
     inkscape:pageopacity="0"
     inkscape:pagecheckerboard="0"
     inkscape:deskcolor="#d1d1d1"
     inkscape:document-units="px"
     inkscape:zoom="2.8284271"
     inkscape:cx="93.868425"
     inkscape:cy="46.845824"
     inkscape:window-width="1920"
     inkscape:window-height="1056"
     inkscape:window-x="1920"
     inkscape:window-y="0"
     inkscape:window-maximized="1"
     inkscape:current-layer="layer1"
     showguides="true" /><defs
     id="defs1"><linearGradient
       id="linearGradient37"
       inkscape:collect="always"><stop
         style="stop-color:#f1dfb6;stop-opacity:1;"
         offset="0"
         id="stop38" /><stop
         style="stop-color:#894100;stop-opacity:1;"
         offset="1"
         id="stop39" /></linearGradient><linearGradient
       id="swatch27"><stop
         style="stop-color:#723b00;stop-opacity:1;"
         offset="0"
         id="stop27" /></linearGradient><radialGradient
       inkscape:collect="always"
       xlink:href="#linearGradient37"
       id="radialGradient39"
       cx="89.859085"
       cy="85.869698"
       fx="89.859085"
       fy="85.869698"
       r="77.958104"
       gradientTransform="matrix(5.0470983,4.082718e-8,0,1.9862719,-363.48803,-109.33857)"
       gradientUnits="userSpaceOnUse" /></defs><g
     inkscape:label="Layer 1"
     inkscape:groupmode="layer"
     id="layer1"><path
       id="path10"
       style="fill:url(#radialGradient39);fill-opacity:1;stroke:#723b00;stroke-width:0.524426;stroke-linecap:butt;stroke-linejoin:miter;stroke-dasharray:none;stroke-opacity:1"
       d="M 66.176489,4.5449272 C 10.631996,27.050355 -6.8956579,86.510359 46.197073,135.89325 L 16.126547,111.16328 8.6780539,109.9997 31.392272,158.90861 H 26.03124 v 16.7079 h 128.0133 v -16.7079 h -5.43888 l 22.71627,-48.90891 -7.4485,1.16358 -28.43578,23.38613 C 186.78546,85.436525 169.08034,26.846652 114.03859,4.5449272 l 0.87268,4.5969257 C 146.29278,24.003619 151.39033,41.052298 155.0094,50.520323 l -4.65633,-0.116767 c -0.80487,-4.837731 -3.02076,-9.322553 -6.45904,-13.501931 l -2.79422,2.269783 c -3.4066,-4.291056 -6.41599,-8.779726 -11.05802,-12.453078 l 0.58178,6.983474 c 22.70888,28.590131 21.46358,74.879986 -34.110244,90.574176 V 101.3774 l 3.937294,-6.817554 -1.399154,-1.397103 1.247564,-2.318949 1.97684,0.739523 1.81091,-2.138676 -0.16593,-1.565086 1.4811,-0.08195 5.02097,-3.949587 -13.004144,-4.691157 2.05879,-2.47054 4.855044,-2.056734 v -3.951631 h 1.4811 v -2.880248 h 3.37394 V 64.01201 h -1.06934 V 61.131762 H 71.957471 v 2.880248 h -1.069338 v 3.785703 h 3.373945 v 2.880248 h 1.481095 v 3.951635 l 4.855041,2.056734 2.058784,2.47054 -13.004136,4.691158 5.020972,3.949586 1.481096,0.08195 -0.165932,1.565085 1.81091,2.138676 1.976842,-0.739523 1.247561,2.318949 -1.399153,1.397104 3.937294,6.817545 v 22.85557 C 28.12942,108.49982 26.900054,62.267411 49.589457,33.701804 l 0.583834,-6.983474 c -4.642023,3.673352 -7.651409,8.162022 -11.058022,12.453078 l -2.79421,-2.269783 c -3.438289,4.179378 -5.65417,8.6642 -6.459048,13.501931 l -4.656332,0.116767 C 28.824749,41.052298 33.92229,24.003619 65.303811,9.1418529 Z" /></g></svg>
